HIERARCHY
ROOT Hips
{
  OFFSET 267.745 86.9975 -272.335
  CHANNELS 6 Xposition Yposition Zposition Zrotation Xrotation Yrotation
  JOINT LeftUpLeg
  {
    OFFSET 8.64259 1.95398 -2.38835
    CHANNELS 3 Zrotation Xrotation Yrotation
    JOINT LeftLeg
    {
      OFFSET 43.7702 0 0
      CHANNELS 3 Zrotation Xrotation Yrotation
      JOINT LeftFoot
      {
        OFFSET 40.6238 0 0
        CHANNELS 3 Zrotation Xrotation Yrotation
        JOINT LeftToeBase
        {
          OFFSET 12.7242 0 0
          CHANNELS 3 Zrotation Xrotation Yrotation
          End Site
          {
            OFFSET 0 0 0
          }
        }
      }
    }
  }
  JOINT RightUpLeg
  {
    OFFSET -8.2249 1.95398 -2.59336
    CHANNELS 3 Zrotation Xrotation Yrotation
    JOINT RightLeg
    {
      OFFSET 43.5653 0 0
      CHANNELS 3 Zrotation Xrotation Yrotation
      JOINT RightFoot
      {
        OFFSET 40.6238 0 0
        CHANNELS 3 Zrotation Xrotation Yrotation
        JOINT RightToeBase
        {
          OFFSET 12.7242 0 0
          CHANNELS 3 Zrotation Xrotation Yrotation
          End Site
          {
            OFFSET 0 0 0
          }
        }
      }
    }
  }
  JOINT Spine
  {
    OFFSET 0.165834 0.87714 6.61349
    CHANNELS 3 Zrotation Xrotation Yrotation
    JOINT Spine1
    {
      OFFSET 7.38963 1.71661e-005 0
      CHANNELS 3 Zrotation Xrotation Yrotation
      JOINT Spine2
      {
        OFFSET 11.9445 1.14441e-005 0
        CHANNELS 3 Zrotation Xrotation Yrotation
        JOINT Spine3
        {
          OFFSET 14.7254 4.19617e-005 0
          CHANNELS 3 Zrotation Xrotation Yrotation
          JOINT Spine4
          {
            OFFSET 10.9679 0 0
            CHANNELS 3 Zrotation Xrotation Yrotation
            JOINT RightShoulder
            {
              OFFSET 2.46616 -1.6653 3.69651
              CHANNELS 3 Zrotation Xrotation Yrotation
              JOINT RightArm
              {
                OFFSET 13.0012 0 0
                CHANNELS 3 Zrotation Xrotation Yrotation
                JOINT RightForeArm
                {
                  OFFSET 28.7848 1.52588e-005 0
                  CHANNELS 3 Zrotation Xrotation Yrotation
                  JOINT RightHand
                  {
                    OFFSET 26.5688 1.52588e-005 0
                    CHANNELS 3 Zrotation Xrotation Yrotation
                    End Site
                    {
                      OFFSET 0 0 0
                    }
                  }
                }
              }
            }
            JOINT LeftShoulder
            {
              OFFSET 2.38034 -1.29275 -3.7523
              CHANNELS 3 Zrotation Xrotation Yrotation
              JOINT LeftArm
              {
                OFFSET 16.3182 6.10352e-005 0
                CHANNELS 3 Zrotation Xrotation Yrotation
                JOINT LeftForeArm
                {
                  OFFSET 27.0901 0 0
                  CHANNELS 3 Zrotation Xrotation Yrotation
                  JOINT LeftHand
                  {
                    OFFSET 24.5451 1.52588e-005 0
                    CHANNELS 3 Zrotation Xrotation Yrotation
                    End Site
                    {
                      OFFSET 0 0 0
                    }
                  }
                }
              }
            }
            JOINT Neck
            {
              OFFSET 5.0226 -0.0266342 0
              CHANNELS 3 Zrotation Xrotation Yrotation
              JOINT Head
              {
                OFFSET 6.69364 2.86102e-005 0
                CHANNELS 3 Zrotation Xrotation Yrotation
                End Site
                {
                  OFFSET 0 0 0
                }
              }
            }
          }
        }
      }
    }
  }
}
MOTION
Frames:	12
Frame Time:	0.0416667
38.4015 98.7534 -309.058 132.252 -87.7274 133.364 -176.06 0.306682 88.6064 -8.06363 18.5878 1.80887 59.6014 3.65325 12.4739 36.6566 -0.833512 -1.03011 175.555 5.56051 89.4109 -19.0475 6.93354 -0.250942 62.5515 7.95638 20.3279 24.8946 0.932515 0.294729 1.69274 7.18073 -90.3018 12.5306 3.21924 -0.975666 0.863195 3.17319 -1.11652 -21.704 3.36349 0.0380329 -1.69136 3.36349 0.0380311 121.318 -43.2361 -50.0962 21.162 -24.8339 -27.4789 -164.784 -75.0458 -169.283 31.4414 -15.1825 -54.7807 -90.556 -56.706 79.0396 -26.5167 -0.392264 -14.2513 4.40924 52.0646 -9.90399 -3.40472 -0.0936673 -4.02063 4.79183 -2.73646 -4.53299 -0.286613 -1.60999 7.95289 
38.401 98.7383 -309.105 128.844 -87.6018 129.977 -176.035 0.340537 88.6285 -8.02229 18.8591 1.79925 59.6767 3.68705 12.5499 36.1687 -0.773318 -1.05584 175.419 5.6516 89.3642 -19.2061 7.22618 -0.121577 62.6466 7.83393 20.5863 24.6642 0.988387 0.304634 1.65058 7.16777 -90.3123 12.556 3.13039 -0.987303 0.88837 3.08391 -1.12423 -21.6771 3.28224 0.000136058 -1.6644 3.28225 0.00013639 121.094 -43.2144 -50.4513 21.4802 -24.8176 -27.0858 -165.797 -73.0673 -170.275 30.0936 -13.9603 -53.0801 -90.2357 -57.1458 79.5697 -26.1643 1.91697 -14.3725 4.08234 49.1373 -11.4765 -4.33831 -0.116898 -2.70896 5.14217 -3.32091 -3.20792 -1.10659 -2.53787 5.36549 
38.3986 98.744 -309.133 128.627 -87.338 129.61 -176.272 0.21603 88.4218 -8.0696 18.753 1.94091 59.5952 3.5957 12.4199 36.2123 -0.790341 -0.826324 175.377 5.48601 89.2303 -19.1616 7.18364 -0.149298 62.4947 7.84623 20.2949 25.4367 0.765603 0.562884 1.50339 7.1928 -90.293 12.5031 2.84743 -0.913984 0.83486 2.80445 -1.0385 -21.7253 2.99037 -0.0152109 -1.71264 2.99037 -0.0152128 120.278 -43.9982 -52.0787 21.516 -24.5476 -25.9183 -157.903 -77.761 -161.434 31.8393 -14.4058 -51.9518 -89.445 -57.5566 80.7397 -26.0331 3.35414 -15.0628 5.01043 48.1905 -13.3186 -4.23726 -0.082503 -4.87009 6.57111 -3.01867 -3.59604 -3.81392 -2.25026 6.31954 
38.3605 98.7346 -309.118 125.088 -87.4845 126.217 -176.246 0.437519 88.5619 -8.07451 18.5628 2.0022 59.6795 3.57888 12.0596 35.9126 -0.772298 -0.507616 175.401 5.55209 89.3821 -18.8622 7.11938 -0.0649826 62.1763 7.7923 19.998 25.8483 0.581568 1.27317 1.4402 7.15289 -90.2812 12.5818 2.72701 -0.87945 0.91329 2.68565 -0.998694 -21.6448 2.86513 -0.018568 -1.63217 2.86514 -0.0185632 119.837 -45.6398 -53.39 21.0451 -23.6674 -23.8398 -131.502 -82.587 -133.896 32.6165 -14.1112 -50.0781 -89.2209 -57.2291 80.9924 -26.3059 4.77117 -15.4619 6.69062 47.7035 -16.0399 -3.45571 -0.0903614 -4.3985 8.07498 -3.47485 -5.57872 -6.98912 -2.45561 8.31844 
38.3684 98.7192 -309.068 129.745 -87.4379 130.661 -176.428 0.18568 88.3098 -8.10267 18.2648 2.06045 59.8036 3.68284 11.9766 35.9705 -0.782779 -0.434579 175.309 5.41691 89.13 -18.9673 6.96809 -0.0933743 62.0343 7.86105 19.9207 26.725 0.269894 2.22314 1.35205 7.15223 -90.2263 12.5808 2.57803 -0.752375 0.912153 2.54243 -0.86518 -21.6436 2.68489 0.0577663 -1.63092 2.68488 0.0577613 119.282 -47.2285 -54.8186 20.6915 -23.0253 -21.3569 -55.9702 -81.7138 -57.6664 33.5424 -12.9846 -45.6561 -88.5481 -56.9602 81.8822 -26.4946 5.53864 -15.673 7.178 45.9229 -17.4027 -4.03416 -0.0798234 -5.10784 9.84383 -3.69547 -6.2121 -10.6545 -2.7191 8.56968 
38.323 98.6966 -309.044 127.555 -87.7055 128.673 -176.384 0.452087 88.4773 -8.15822 18.3414 2.11152 59.6612 3.66786 12.2667 36.2712 -0.812914 -0.522649 175.395 5.53387 89.3413 -18.6992 7.2083 -0.0684035 61.6251 7.97169 20.0092 27.3021 0.0644849 2.93277 1.24457 7.09858 -90.1888 12.6862 2.38187 -0.658037 1.01717 2.3506 -0.762284 -21.5356 2.46945 0.0886681 -1.5229 2.46946 0.0886759 118.529 -49.2354 -56.6346 20.3778 -21.894 -18.6724 -28.0677 -73.1684 -29.6632 32.1917 -10.9323 -40.6632 -87.9588 -56.373 82.6108 -27.1072 5.22325 -16.2565 7.41198 47.8616 -17.0464 -6.54538 -0.029211 -5.99435 10.3972 -4.08326 -7.40033 -12.5389 -2.94959 8.84783 
38.2583 98.69 -309.048 129.351 -87.9097 130.529 -176.222 0.51013 88.5966 -8.11557 18.4068 2.00766 59.6046 3.64403 12.4142 36.2671 -0.819568 -0.383777 175.551 5.55437 89.4795 -18.492 7.47295 -0.18322 61.2151 8.14445 20.154 27.6017 -0.0550396 3.47092 1.13428 7.07979 -90.1547 12.7218 2.17895 -0.566938 1.0525 2.15189 -0.662336 -21.4973 2.24855 0.114467 -1.48465 2.24854 0.114457 117.573 -50.2393 -58.3932 20.8235 -22.275 -16.1617 -24.6387 -68.0369 -27.0212 27.0993 -6.67121 -31.7754 -87.4544 -55.8393 83.2384 -27.7723 4.45391 -16.9702 6.05046 49.4621 -14.5488 -6.12539 -0.0724945 -4.79887 12.4205 -4.31378 -7.61807 -16.547 -3.22527 8.12288 
38.2755 98.6854 -309.077 130.866 -87.4829 131.987 -176.32 0.23242 88.5486 -8.18651 18.2694 2.12195 59.7016 3.66814 12.0268 36.2869 -0.812939 -0.560241 175.43 5.22242 89.3556 -18.4855 8.04688 -0.174509 60.9494 8.41087 20.5186 27.8735 -0.210596 4.46003 1.03123 7.101 -90.083 12.6774 2.00867 -0.402396 1.00792 1.98902 -0.490448 -21.5397 2.0367 0.220156 -1.52705 2.0367 0.220152 117.155 -52.0196 -59.5171 20.922 -20.9978 -13.3571 -19.0929 -58.3171 -22.3953 24.5245 -5.00844 -27.2302 -87.2275 -54.3567 83.3338 -29.4991 2.97048 -17.4732 5.04232 50.8811 -11.8824 -6.92702 -0.0450817 -5.57195 13.2551 -5.34794 -10.9839 -18.5955 -3.87181 11.3437 
38.2214 98.6766 -309.156 129.905 -87.2285 130.703 -176.503 0.160531 88.2597 -8.21587 18.3544 2.11945 59.7171 3.71627 12.0937 36.2241 -0.809432 -0.485633 175.298 5.33882 89.0323 -18.8698 8.90833 -0.253625 60.8397 8.83955 21.3323 26.8855 -0.0810951 5.1772 0.886521 7.10595 -90.0648 12.6659 1.73001 -0.332848 0.996067 1.71368 -0.408695 -21.5483 1.75004 0.202646 -1.53565 1.75004 0.20264 115.594 -52.1639 -61.8833 22.1348 -19.9587 -10.5499 -15.5772 -49.0441 -20.7175 19.0891 -2.90246 -21.5303 -87.0032 -55.0689 83.7625 -28.8009 2.83046 -18.3158 1.81824 51.7986 -7.98239 -9.51547 0.0551482 -6.70343 13.7611 -5.33824 -11.0451 -20.3572 -4.07384 12.0507 
38.1596 98.6815 -309.237 131.618 -86.9576 132.304 -176.553 -0.0104593 88.1916 -8.2893 18.4873 2.1479 59.7721 3.80981 12.0882 35.8879 -0.764902 -0.591897 175.365 5.22793 88.9927 -19.0221 9.93968 -0.452515 60.623 9.32861 22.2516 26.624 -0.117134 6.00812 0.725389 7.13911 -90.0277 12.598 1.42777 -0.221889 0.927803 1.41663 -0.284534 -21.6136 1.42843 0.217564 -1.60094 1.42844 0.21756 114.344 -52.7945 -63.8908 23.0031 -18.9815 -8.42196 -13.4865 -41.6955 -20.778 14.2225 -1.52725 -16.5222 -85.9913 -54.3555 85.1111 -29.4606 2.75427 -18.2333 1.68063 49.923 -7.78008 -6.14021 -0.0486006 -5.7155 14.3442 -5.04048 -10.772 -21.9783 -3.88912 11.5315 
38.1217 98.6708 -309.286 133.854 -86.6024 134.302 -176.565 -0.292264 88.03 -8.36268 18.9127 2.06371 59.8014 3.99767 12.4819 35.6747 -0.730259 -0.773537 175.174 5.16587 88.7031 -19.5396 10.6543 -0.47053 60.7858 9.68952 23.1591 25.7145 0.100321 5.64024 0.619542 7.17988 -89.9756 12.5154 1.24252 -0.0949278 0.844996 1.23714 -0.149535 -21.6948 1.2136 0.282949 -1.68213 1.21359 0.282943 113.335 -53.1544 -65.4666 24.1124 -18.207 -6.22151 -12.8132 -36.7369 -22.2522 10.0485 -0.665695 -11.9913 -85.7106 -53.5891 85.4155 -30.2653 2.52891 -17.3541 4.24099 50.699 -10.561 -7.28191 0.00847089 -6.656 14.0566 -5.29491 -12.3508 -22.2659 -4.08452 13.428 
38.029 98.6795 -309.189 138.796 -86.3927 139.109 -176.568 -0.718286 87.9581 -8.43984 19.4542 2.07387 59.6837 4.08096 13.0349 36.6199 -0.855649 -0.439624 175.167 4.89449 88.6332 -19.8664 11.003 -0.5982 61.1492 9.84712 23.8041 24.9911 0.289303 5.27637 0.516415 7.24618 -89.9144 12.3816 1.06689 0.0496348 0.711137 1.06805 0.00262048 -21.8273 1.00265 0.368023 -1.8146 1.00265 0.368015 112.687 -53.3486 -66.4634 25.227 -17.6321 -5.24172 -12.4108 -34.2082 -23.0513 8.37489 -0.406441 -9.90773 -85.5353 -52.2769 85.5018 -31.3818 2.40174 -16.9177 4.94296 50.4875 -11.0981 -7.47914 -0.00139811 -6.35566 13.9317 -5.16907 -13.0226 -22.8392 -3.88181 13.5002 
